<?xml version="1.0" encoding="iso-8859-1"?>
<!-- Generator: Adobe Illustrator 19.0.0, SVG Export Plug-In . SVG Version: 6.00 Build 0)  -->
<svg version="1.1" id="Layer_1" xmlns="http://www.w3.org/2000/svg" xmlns:xlink="http://www.w3.org/1999/xlink" x="0px" y="0px"
	 viewBox="0 0 295.238 295.238" style="enable-background:new 0 0 295.238 295.238;" xml:space="preserve">
<g>
	<g>
		<g>
			<polygon style="fill:#F9BA48;" points="254.762,28.571 292.857,28.571 292.857,33.333 278.571,47.619 292.857,61.905 
				292.857,66.667 254.762,66.667 			"/>
		</g>
		<g>
			<rect x="69.048" y="33.333" style="fill:#F9BA48;" width="161.905" height="76.19"/>
		</g>
		<g>
			<path style="fill:#333333;" d="M254.762,257.143h4.762V0H64.286c-13.129,0-23.81,10.681-23.81,23.81v133.333h-9.524
				c-15.757,0-28.571,12.814-28.571,28.571s12.814,28.571,28.571,28.571h9.524v57.143c0,13.129,10.681,23.81,23.81,23.81h195.238
				v-9.524h-4.762c-7.876,0-14.286-6.41-14.286-14.286C240.476,263.552,246.886,257.143,254.762,257.143z M50,204.762h-9.524
				v-38.095H50V204.762z M59.524,190.476h138.095v14.286H59.524V190.476z M207.143,171.157l20.376,14.557l-20.376,14.557V171.157z
				 M197.619,180.952H59.524v-14.286h138.095V180.952z M11.905,185.714c0-10.505,8.543-19.048,19.048-19.048v38.095
				C20.448,204.762,11.905,196.219,11.905,185.714z M235.724,285.714H64.286c-7.876,0-14.286-6.41-14.286-14.286
				s6.41-14.286,14.286-14.286h171.438c-2.995,3.981-4.771,8.929-4.771,14.286C230.952,276.786,232.729,281.733,235.724,285.714z
				 M64.286,247.619c-5.381,0-10.295,1.862-14.286,4.886v-38.219h153.905l40-28.571l-40-28.571H50V23.81
				c0-7.876,6.41-14.286,14.286-14.286H250v238.095H64.286z"/>
		</g>
	</g>
</g>
<g>
</g>
<g>
</g>
<g>
</g>
<g>
</g>
<g>
</g>
<g>
</g>
<g>
</g>
<g>
</g>
<g>
</g>
<g>
</g>
<g>
</g>
<g>
</g>
<g>
</g>
<g>
</g>
<g>
</g>
</svg>
